<?xml version="1.0" standalone="no"?>
<!DOCTYPE svg PUBLIC "-//W3C//DTD SVG 20010904//EN"
 "http://www.w3.org/TR/2001/REC-SVG-20010904/DTD/svg10.dtd">
<svg version="1.0" xmlns="http://www.w3.org/2000/svg"
 width="240.000000pt" height="240.000000pt" viewBox="0 0 240.000000 240.000000"
 preserveAspectRatio="xMidYMid meet">

<g transform="translate(0.000000,240.000000) scale(0.100000,-0.100000)"
fill="#000000" stroke="none">
<path d="M695 2057 c-118 -47 -201 -153 -241 -310 -22 -83 -14 -228 16 -316
48 -136 169 -279 283 -331 113 -53 168 -63 342 -65 l160 -2 65 -44 65 -44 -60
-7 c-122 -16 -202 -47 -266 -105 -59 -53 -81 -103 -80 -179 1 -144 122 -266
308 -310 129 -31 331 -2 461 65 69 36 162 153 162 204 0 24 -18 57 -31 57 -6
0 -42 -28 -79 -63 -81 -75 -145 -111 -231 -132 -88 -20 -155 -19 -235 6 -160
49 -239 134 -201 214 36 76 141 121 317 135 65 5 147 5 189 0 93 -10 121 -1
121 39 0 47 -5 50 -233 155 -43 19 -87 42 -98 50 -20 14 -18 16 42 46 82 40
226 148 308 231 121 121 183 249 185 380 1 118 -75 232 -196 295 -202 105
-584 -77 -714 -340 -75 -154 -55 -329 57 -493 16 -23 29 -45 29 -49 0 -3 -46
-5 -102 -2 -126 6 -178 26 -247 97 -81 83 -110 166 -111 316 0 151 55 309 144
413 26 30 43 58 40 64 -20 33 -114 46 -169 25z m1021 -116 c41 -19 96 -78 112
-122 31 -81 19 -178 -34 -274 -15 -27 -71 -93 -123 -145 -102 -101 -194 -161
-308 -202 -62 -22 -63 -22 -79 -2 -30 37 -74 141 -85 199 -6 33 -9 94 -7 135
4 63 11 87 43 150 67 129 187 230 316 264 73 20 116 19 165 -3z"/>
</g>
</svg>
