<?xml version="1.0" standalone="no"?>
<!DOCTYPE svg PUBLIC "-//W3C//DTD SVG 20010904//EN"
 "http://www.w3.org/TR/2001/REC-SVG-20010904/DTD/svg10.dtd">
<svg version="1.0" xmlns="http://www.w3.org/2000/svg"
 width="459.000000pt" height="612.000000pt" viewBox="0 0 459.000000 612.000000"
 preserveAspectRatio="xMidYMid meet">

<g transform="translate(0.000000,612.000000) scale(0.100000,-0.100000)"
fill="#000000" stroke="none">
<path d="M1670 5609 c-544 -63 -1006 -352 -1210 -758 -91 -182 -124 -329 -125
-546 0 -143 3 -167 23 -225 77 -215 266 -384 497 -445 92 -25 246 -30 335 -11
191 40 362 175 427 338 104 257 -71 556 -372 633 -43 11 -113 15 -257 15 -278
0 -284 4 -276 153 16 326 546 671 988 643 128 -8 208 -28 315 -81 205 -100
363 -291 455 -551 72 -206 100 -389 100 -656 0 -490 -141 -1027 -399 -1523
-183 -352 -393 -629 -730 -965 -216 -215 -387 -362 -677 -581 -304 -228 -525
-425 -556 -495 -17 -36 6 -57 51 -49 147 27 815 411 1291 740 370 257 623 466
905 749 287 288 458 505 623 793 418 731 426 1554 21 2163 -86 130 -281 324
-414 413 -298 198 -663 286 -1015 246z"/>
<path d="M3913 5066 c-94 -30 -166 -98 -217 -205 -29 -62 -31 -73 -31 -176 0
-103 2 -114 31 -175 44 -92 93 -143 172 -182 59 -29 76 -33 147 -32 62 0 91 5
127 23 78 38 134 94 175 179 37 74 38 79 38 186 -1 146 -22 202 -109 291 -94
96 -213 128 -333 91z"/>
<path d="M3929 3726 c-125 -44 -217 -162 -241 -310 -29 -178 62 -363 215 -432
207 -94 438 50 479 299 30 181 -73 379 -227 436 -64 24 -169 27 -226 7z"/>
</g>
</svg>
