<?xml version="1.0" standalone="no"?>
<!DOCTYPE svg PUBLIC "-//W3C//DTD SVG 20010904//EN"
 "http://www.w3.org/TR/2001/REC-SVG-20010904/DTD/svg10.dtd">
<svg version="1.0" xmlns="http://www.w3.org/2000/svg"
 width="500.000000pt" height="500.000000pt" viewBox="0 0 500.000000 500.000000"
 preserveAspectRatio="xMidYMid meet">

<g transform="translate(0.000000,500.000000) scale(0.100000,-0.100000)"
fill="#000000" stroke="none">
<path d="M2623 4789 c-55 -27 -152 -132 -196 -211 -81 -146 -126 -325 -134
-533 -7 -166 7 -320 47 -518 16 -78 28 -142 27 -143 -36 -22 -379 -330 -448
-401 -177 -182 -294 -372 -340 -548 -30 -114 -30 -271 0 -390 112 -443 513
-749 981 -746 82 0 156 7 215 19 50 11 91 19 92 18 1 -1 28 -100 60 -221 56
-216 58 -223 58 -355 0 -125 -2 -139 -26 -190 -75 -158 -223 -240 -434 -240
-113 0 -156 12 -206 57 -55 50 -51 60 20 55 237 -17 330 319 127 455 -61 42
-113 56 -201 57 -231 2 -362 -230 -255 -451 83 -169 331 -286 570 -269 302 21
500 213 500 487 0 84 -19 192 -75 433 -25 104 -45 196 -45 203 0 6 40 33 88
58 204 105 333 257 383 453 33 131 20 251 -44 381 -49 101 -186 234 -297 289
-114 56 -183 73 -322 79 l-117 6 -50 206 c-28 113 -51 212 -51 219 0 7 48 58
106 115 221 212 327 388 375 621 28 136 23 383 -10 526 -60 257 -150 438 -242
486 -40 20 -107 17 -156 -7z m237 -387 c143 -71 98 -356 -100 -620 -62 -84
-281 -312 -300 -312 -12 0 -28 83 -41 204 -13 121 -4 273 22 373 39 153 146
310 241 353 54 24 132 25 178 2z m-365 -1469 c51 -172 85 -328 73 -332 -6 -2
-52 -24 -102 -49 -149 -75 -259 -209 -301 -368 -61 -236 83 -497 312 -560 71
-19 96 -14 91 18 -2 17 -21 32 -67 55 -80 41 -115 73 -148 140 -72 148 4 320
180 408 77 39 113 44 121 18 3 -10 26 -110 51 -223 73 -324 135 -594 140 -607
7 -20 -27 -32 -130 -45 -178 -21 -409 18 -568 98 -255 128 -367 289 -367 523
0 290 162 545 555 878 66 56 125 102 132 102 6 1 19 -25 28 -56z m400 -648
c90 -24 144 -53 203 -112 97 -97 146 -245 123 -372 -16 -84 -38 -132 -94 -201
-42 -54 -181 -159 -193 -148 -3 3 -16 46 -30 94 -27 99 -174 726 -174 743 0
16 96 14 165 -4z"/>
</g>
</svg>
