<?xml version="1.0" standalone="no"?>
<!DOCTYPE svg PUBLIC "-//W3C//DTD SVG 20010904//EN"
 "http://www.w3.org/TR/2001/REC-SVG-20010904/DTD/svg10.dtd">
<svg version="1.0" xmlns="http://www.w3.org/2000/svg"
 width="100.000000pt" height="100.000000pt" viewBox="0 0 100.000000 100.000000"
 preserveAspectRatio="xMidYMid meet">

<g transform="translate(0.000000,100.000000) scale(0.100000,-0.100000)"
fill="#C47BFD" stroke="none">
<path d="M418 987 c-93 -26 -141 -81 -183 -207 -28 -83 -38 -97 -100 -128 -72
-36 -113 -95 -129 -184 -8 -42 2 -50 66 -62 50 -9 74 -42 82 -114 4 -33 13
-67 20 -77 7 -10 40 -28 72 -39 51 -19 63 -28 96 -78 46 -70 84 -92 158 -92
71 0 108 20 154 84 24 34 49 55 76 66 50 20 76 52 96 119 19 69 40 86 111 94
l58 6 -1 45 c-2 136 -38 199 -139 241 -57 23 -60 28 -104 148 -29 77 -65 125
-119 154 -58 32 -149 42 -214 24z m189 -48 c53 -25 83 -68 124 -172 41 -107
47 -115 101 -133 87 -29 128 -89 128 -190 l0 -41 -46 -6 c-65 -7 -95 -33 -119
-103 -26 -78 -30 -83 -81 -106 -30 -13 -57 -37 -84 -73 -49 -67 -64 -75 -133
-75 -65 0 -92 18 -132 86 -22 37 -38 51 -84 71 -31 13 -63 28 -71 32 -9 5 -18
31 -22 64 -4 31 -14 70 -23 87 -16 32 -61 60 -95 60 -70 0 6 156 93 190 52 21
65 38 103 137 42 108 71 148 129 174 57 26 156 25 212 -2z"/>
<path d="M376 784 c-9 -8 -16 -19 -16 -24 0 -11 29 -40 40 -40 11 0 40 29 40
40 0 11 -29 40 -40 40 -5 0 -16 -7 -24 -16z"/>
<path d="M576 784 c-9 -8 -16 -19 -16 -24 0 -11 29 -40 40 -40 11 0 40 29 40
40 0 11 -29 40 -40 40 -5 0 -16 -7 -24 -16z"/>
<path d="M446 606 c-49 -18 -74 -42 -59 -57 7 -7 20 -4 44 10 19 12 50 21 69
21 19 0 50 -9 69 -21 33 -20 61 -14 46 10 -22 37 -114 57 -169 37z"/>
</g>
</svg>
