<?xml version="1.0" standalone="no"?>
<!DOCTYPE svg PUBLIC "-//W3C//DTD SVG 20010904//EN"
 "http://www.w3.org/TR/2001/REC-SVG-20010904/DTD/svg10.dtd">
<svg version="1.0" xmlns="http://www.w3.org/2000/svg"
 width="100.000000pt" height="100.000000pt" viewBox="0 0 100.000000 100.000000"
 preserveAspectRatio="xMidYMid meet">

<g transform="translate(0.000000,100.000000) scale(0.100000,-0.100000)"
fill="#C47BFD" stroke="none">
<path d="M262 993 c-12 -5 -68 -96 -115 -188 l-26 -50 19 -320 c11 -176 19
-337 20 -357 l0 -37 -57 -3 c-44 -2 -58 -7 -58 -18 0 -13 14 -14 85 -10 47 3
213 5 370 5 157 0 323 -2 370 -5 71 -4 85 -3 85 10 0 11 -14 16 -57 18 l-58 3
0 37 c1 20 9 181 20 357 l18 320 -25 50 c-50 99 -103 183 -119 189 -19 7 -453
7 -472 -1z m523 -135 l58 -101 -19 -351 -19 -351 -305 0 -305 0 -19 351 -19
351 58 101 57 102 228 0 228 0 57 -102z"/>
<path d="M290 560 c0 -103 1 -110 20 -110 17 0 20 7 20 46 0 41 2 45 23 42 18
-2 23 -10 25 -45 3 -35 7 -43 23 -43 16 0 19 7 19 39 0 22 -7 46 -15 54 -13
13 -13 16 0 27 21 17 19 64 -3 83 -12 11 -36 17 -65 17 l-47 0 0 -110z m85 45
c0 -23 -5 -31 -22 -33 -20 -3 -23 1 -23 33 0 32 3 36 23 33 17 -2 22 -10 22
-33z"/>
<path d="M500 560 c0 -103 1 -110 20 -110 19 0 20 7 20 110 0 103 -1 110 -20
110 -19 0 -20 -7 -20 -110z"/>
<path d="M620 560 c0 -91 3 -110 15 -110 11 0 15 12 15 45 0 43 1 45 29 45 39
0 61 24 61 64 0 44 -26 66 -78 66 l-42 0 0 -110z m78 64 c13 -23 4 -51 -18
-57 -25 -6 -30 0 -30 40 0 26 4 33 20 33 10 0 23 -7 28 -16z"/>
</g>
</svg>
