<?xml version="1.0" standalone="no"?>
<!DOCTYPE svg PUBLIC "-//W3C//DTD SVG 20010904//EN"
 "http://www.w3.org/TR/2001/REC-SVG-20010904/DTD/svg10.dtd">
<svg version="1.0" xmlns="http://www.w3.org/2000/svg"
 width="100.000000pt" height="100.000000pt" viewBox="0 0 100.000000 100.000000"
 preserveAspectRatio="xMidYMid meet">

<g transform="translate(0.000000,100.000000) scale(0.100000,-0.100000)"
fill="#C47BFD" stroke="none">
<path d="M418 987 c-93 -27 -141 -81 -183 -208 -26 -76 -58 -119 -90 -119 -7
0 -33 -18 -57 -40 -46 -40 -70 -84 -82 -152 -8 -42 2 -50 66 -62 50 -9 74 -42
82 -114 4 -33 13 -67 20 -77 7 -10 40 -28 72 -39 45 -16 63 -29 79 -55 52 -89
126 -131 204 -116 56 11 86 31 125 85 24 34 49 55 76 66 50 20 76 52 96 119
19 69 40 86 111 94 l58 6 -1 57 c-3 125 -46 194 -146 233 -48 18 -54 26 -97
144 -29 77 -65 125 -119 154 -58 32 -149 42 -214 24z m189 -48 c53 -25 83 -68
124 -172 41 -107 47 -115 101 -133 87 -29 128 -89 128 -190 l0 -41 -46 -6
c-65 -7 -95 -33 -119 -103 -26 -78 -30 -83 -81 -106 -30 -13 -57 -37 -84 -73
-49 -67 -64 -75 -133 -75 -65 0 -92 18 -132 86 -22 37 -38 51 -84 71 -31 13
-63 28 -71 32 -9 5 -18 31 -22 64 -4 31 -14 70 -23 87 -16 32 -61 60 -95 60
-30 0 -35 24 -16 74 19 50 65 97 121 123 43 19 72 65 108 170 35 104 104 152
216 153 46 0 78 -6 108 -21z"/>
<path d="M356 758 c-21 -30 -20 -51 4 -79 l20 -24 20 24 c11 13 20 31 20 40 0
19 -27 61 -40 61 -5 0 -16 -10 -24 -22z"/>
<path d="M516 758 c-21 -30 -20 -51 4 -79 l20 -24 20 24 c11 13 20 31 20 40 0
19 -27 61 -40 61 -5 0 -16 -10 -24 -22z"/>
</g>
</svg>
