<?xml version="1.0" standalone="no"?>
<!DOCTYPE svg PUBLIC "-//W3C//DTD SVG 20010904//EN"
 "http://www.w3.org/TR/2001/REC-SVG-20010904/DTD/svg10.dtd">
<svg version="1.0" xmlns="http://www.w3.org/2000/svg"
 width="80.000000pt" height="80.000000pt" viewBox="0 0 80.000000 80.000000"
 preserveAspectRatio="xMidYMid meet">

<g transform="translate(0.000000,80.000000) scale(0.100000,-0.100000)"
fill="#C47BFD" stroke="none">
<path d="M342 720 c-51 -12 -95 -62 -121 -136 -20 -55 -29 -68 -61 -84 -46
-23 -76 -60 -89 -108 -12 -42 -10 -48 26 -55 45 -10 55 -22 67 -78 11 -50 15
-55 59 -77 30 -14 56 -37 72 -61 48 -78 150 -78 201 -1 15 22 36 42 48 46 34
10 55 34 66 75 14 52 34 69 81 69 44 0 47 8 28 90 -12 55 -32 77 -85 100 -37
16 -44 25 -68 87 -30 80 -64 117 -121 132 -45 12 -56 12 -103 1z m139 -33 c33
-22 41 -34 91 -141 18 -39 30 -52 58 -60 46 -15 80 -66 80 -122 0 -41 -2 -44
-27 -44 -57 0 -69 -9 -82 -60 -14 -53 -32 -75 -73 -85 -16 -4 -28 -13 -28 -20
0 -7 -13 -27 -29 -44 -24 -26 -37 -31 -73 -31 -51 0 -80 18 -97 59 -9 21 -27
35 -62 49 -52 22 -54 25 -64 85 -7 43 -39 77 -72 77 -54 0 -9 98 63 137 35 19
45 33 68 91 25 65 62 113 96 125 40 15 118 6 151 -16z"/>
<path d="M301 582 c-9 -17 -9 -27 0 -44 11 -21 12 -21 25 -3 8 10 14 22 14 25
0 3 -6 15 -14 25 -13 18 -14 18 -25 -3z"/>
<path d="M411 582 c-9 -17 -9 -27 0 -44 11 -21 12 -21 25 -3 8 10 14 22 14 25
0 3 -6 15 -14 25 -13 18 -14 18 -25 -3z"/>
</g>
</svg>
