<?xml version="1.0" standalone="no"?>
<!DOCTYPE svg PUBLIC "-//W3C//DTD SVG 20010904//EN"
 "http://www.w3.org/TR/2001/REC-SVG-20010904/DTD/svg10.dtd">
<svg version="1.0" xmlns="http://www.w3.org/2000/svg"
 width="526.000000pt" height="474.000000pt" viewBox="0 0 526.000000 474.000000"
 preserveAspectRatio="xMidYMid meet">

<g transform="translate(0.000000,474.000000) scale(0.100000,-0.100000)"
fill="#000000" stroke="none">
<path d="M880 4655 c0 -5 14 -24 32 -42 l32 -33 -34 -35 c-41 -43 -28 -47 15
-5 l31 30 29 -30 c16 -16 33 -30 39 -30 5 0 -5 16 -24 35 l-34 35 34 35 c18
19 31 37 29 40 -3 3 -18 -9 -34 -25 -16 -17 -33 -30 -39 -30 -5 0 -25 14 -43
32 -18 18 -33 28 -33 23z"/>
<path d="M940 2445 l0 -1955 1680 0 1680 0 -2 1952 -3 1953 -1677 3 -1678 2 0
-1955z m658 1383 l2 -448 -22 -5 c-13 -3 -147 -4 -298 -3 l-275 3 -3 453 -2
452 297 -2 298 -3 3 -447z m650 0 l-3 -453 -280 0 c-154 -1 -286 1 -292 3 -10
3 -13 101 -13 446 0 244 3 446 7 449 3 4 136 7 295 7 l288 0 -2 -452z m670 8
c1 -303 -1 -443 -9 -452 -8 -10 -72 -12 -297 -11 l-287 2 -3 453 -2 452 297
-2 298 -3 3 -439z m652 -9 l0 -454 -292 1 -293 1 -3 440 c-1 242 0 446 3 453
3 9 72 12 295 12 l290 0 0 -453z m658 1 l-3 -453 -290 0 -290 0 -3 453 -2 452
295 0 295 0 -2 -452z m-2630 -945 l2 -453 -300 0 -300 0 0 455 0 455 298 -2
297 -3 3 -452z m652 369 l0 -89 -42 -13 c-145 -43 -238 -165 -238 -313 0 -94
25 -152 96 -224 51 -52 71 -65 122 -80 l62 -18 0 -42 0 -43 -295 0 -295 0 0
448 c0 247 3 452 7 455 3 4 136 7 295 7 l288 0 0 -88z m668 0 c3 -82 3 -82
-25 -93 -137 -55 -189 -96 -231 -187 -35 -75 -37 -193 -5 -263 40 -90 116
-154 218 -184 38 -12 40 -14 40 -51 l0 -39 -298 -3 -298 -2 3 41 c3 41 4 42
59 59 142 43 229 162 229 311 0 146 -99 272 -244 311 l-46 12 0 88 0 88 298
-2 297 -3 3 -83z m652 -5 l0 -92 -42 -13 c-75 -23 -142 -83 -180 -159 -29 -60
-33 -77 -33 -148 0 -67 4 -89 28 -137 35 -71 111 -141 177 -163 50 -17 50 -17
50 -61 l0 -44 -296 0 -295 0 3 42 c3 40 5 43 41 50 20 4 59 19 85 32 145 73
210 273 138 419 -34 70 -110 139 -182 166 -30 12 -61 21 -69 21 -12 0 -15 17
-15 83 0 46 3 87 7 90 3 4 136 7 295 7 l288 0 0 -93z m660 -362 l0 -455 -296
0 -295 0 3 42 3 42 55 11 c256 50 343 374 148 550 -49 44 -137 85 -183 85 -25
0 -25 1 -25 90 l0 90 295 0 295 0 0 -455z m-1837 225 c68 -26 133 -88 164
-159 21 -47 24 -67 21 -127 -12 -181 -163 -305 -334 -273 -141 26 -232 127
-241 267 -15 212 191 366 390 292z m663 -1 c72 -27 126 -76 160 -145 24 -49
26 -62 22 -142 -4 -89 -17 -120 -75 -188 -79 -92 -246 -116 -353 -51 -98 60
-145 144 -144 257 1 126 62 217 180 265 73 30 136 31 210 4z m676 1 c76 -28
126 -73 159 -144 73 -155 8 -329 -148 -398 -48 -21 -143 -26 -199 -9 -86 25
-162 103 -189 194 -19 65 -19 97 2 171 14 50 27 71 72 116 87 87 193 111 303
70z m-2134 -1177 l2 -453 -300 0 -300 0 0 455 0 455 298 -2 297 -3 3 -452z
m652 2 l0 -455 -295 0 -295 0 0 448 c0 247 3 452 7 455 3 4 136 7 295 7 l288
0 0 -455z m665 0 l0 -450 -297 -3 -298 -2 0 455 0 455 298 -2 297 -3 0 -450z
m655 0 l0 -455 -295 0 -295 0 0 448 c0 247 3 452 7 455 3 4 136 7 295 7 l288
0 0 -455z m660 0 l0 -455 -295 0 -295 0 0 455 0 455 295 0 295 0 0 -455z
m-2632 -952 l2 -453 -300 0 -300 0 0 455 0 455 298 -2 297 -3 3 -452z m652 2
l0 -455 -295 0 -295 0 0 448 c0 247 3 452 7 455 3 4 136 7 295 7 l288 0 0
-455z m665 0 l0 -450 -297 -3 -298 -2 0 455 0 455 298 -2 297 -3 0 -450z m655
0 l0 -455 -295 0 -295 0 0 455 0 455 295 0 295 0 0 -455z m660 0 l0 -455 -295
0 -295 0 0 455 0 455 295 0 295 0 0 -455z"/>
<path d="M1674 328 c-18 -26 -72 -178 -64 -178 4 0 13 14 19 30 9 27 14 30 51
30 37 0 42 -3 51 -30 6 -16 15 -30 20 -30 12 0 13 -1 -22 92 -33 92 -43 106
-55 86z m25 -49 c17 -50 14 -59 -19 -59 -34 0 -34 -1 -18 51 14 47 23 49 37 8z"/>
<path d="M2280 245 l0 -95 65 0 c37 0 65 4 65 10 0 6 -25 10 -55 10 l-55 0 0
34 c0 35 0 35 53 39 l52 3 -52 2 -53 2 0 35 0 35 55 0 c30 0 55 5 55 10 0 6
-28 10 -65 10 l-65 0 0 -95z"/>
<path d="M2943 328 c-6 -7 -20 -38 -31 -68 -11 -30 -25 -67 -31 -82 -6 -16 -7
-28 -2 -28 5 0 14 14 20 30 9 27 14 30 51 30 37 0 42 -3 51 -30 6 -16 15 -30
20 -30 12 0 13 -1 -22 92 -34 93 -41 104 -56 86z m25 -51 c18 -49 15 -57 -18
-57 -16 0 -30 3 -30 6 0 16 24 84 30 84 3 0 11 -15 18 -33z"/>
<path d="M3559 321 c-20 -16 -24 -28 -24 -76 0 -48 4 -60 24 -76 33 -27 82
-25 111 6 32 34 19 43 -14 10 -47 -47 -105 -15 -106 58 0 27 7 45 25 62 30 30
45 31 79 4 34 -27 45 -18 15 10 -29 26 -79 27 -110 2z"/>
<path d="M3786 321 c-34 -20 -50 -49 -20 -37 11 5 25 9 32 10 20 4 37 25 27
35 -6 5 -22 2 -39 -8z"/>
<path d="M4217 333 c-7 -13 -8 -143 -2 -164 5 -16 16 -19 71 -19 41 0 63 4 59
10 -3 6 -31 10 -61 10 l-54 0 0 35 0 35 58 2 57 1 -55 6 c-53 6 -55 7 -58 39
l-3 32 55 0 c31 0 56 5 56 10 0 12 -117 14 -123 3z"/>
<path d="M3800 240 c-8 -5 -23 -11 -32 -14 -30 -9 -21 -29 9 -21 31 7 53 23
53 36 0 11 -10 11 -30 -1z"/>
</g>
</svg>
