<?xml version="1.0" standalone="no"?>
<!DOCTYPE svg PUBLIC "-//W3C//DTD SVG 20010904//EN"
 "http://www.w3.org/TR/2001/REC-SVG-20010904/DTD/svg10.dtd">
<svg version="1.0" xmlns="http://www.w3.org/2000/svg"
 width="502.000000pt" height="497.000000pt" viewBox="0 0 502.000000 497.000000"
 preserveAspectRatio="xMidYMid meet">

<g transform="translate(0.000000,497.000000) scale(0.100000,-0.100000)"
fill="#000000" stroke="none">
<path d="M529 4600 c-21 -4 -51 -19 -69 -33 -17 -15 -40 -27 -51 -27 -16 0
-20 -6 -17 -27 2 -20 10 -29 32 -34 16 -5 33 -14 37 -21 5 -7 9 -298 9 -646
l0 -634 -34 -42 c-59 -71 -79 -129 -80 -226 0 -95 17 -145 79 -230 l35 -48 0
-646 c0 -639 0 -646 -20 -646 -20 0 -20 -7 -20 -489 0 -475 1 -489 19 -494 15
-4 20 -15 23 -48 l3 -44 1999 -3 c1469 -1 2002 1 2012 9 8 6 14 29 14 50 0 34
3 38 28 41 l27 3 3 481 2 481 -30 6 -30 7 0 593 c0 448 3 596 12 605 7 7 26
12 43 12 47 0 130 46 177 99 56 62 87 127 101 207 10 55 9 76 -6 132 -37 140
-136 235 -284 272 l-43 11 0 593 c0 515 2 595 15 606 10 8 15 31 15 70 0 58 0
58 -34 64 -44 8 -3921 5 -3967 -4z m729 -132 c9 -9 12 -131 12 -490 l0 -477
-22 -12 -22 -12 22 -8 c21 -8 22 -14 22 -104 0 -92 -1 -95 -22 -96 -13 -1
-138 0 -278 1 -277 2 -353 -6 -432 -46 -26 -13 -49 -24 -50 -24 -2 0 -2 57 -1
127 2 90 6 129 15 135 7 4 173 8 368 8 233 0 350 4 340 10 -9 6 -156 10 -363
10 -269 0 -349 3 -352 13 -2 6 -6 222 -8 480 -5 405 -3 469 10 482 12 13 70
15 382 15 272 0 370 -3 379 -12z m801 -2 c8 -9 10 -154 9 -492 l-3 -479 -383
-3 c-371 -2 -383 -2 -390 17 -4 11 -5 230 -2 487 l5 468 23 6 c13 3 183 6 377
7 284 2 355 0 364 -11z m798 2 c10 -8 13 -117 13 -489 0 -446 -1 -479 -17
-486 -10 -4 -184 -6 -388 -3 l-370 5 -3 480 c-2 409 0 482 12 491 20 14 736
16 753 2z m799 -2 c18 -14 19 -31 20 -483 1 -296 -2 -473 -9 -480 -7 -10 -97
-13 -387 -13 -335 0 -379 2 -384 16 -3 9 -6 224 -6 479 0 408 2 465 16 479 13
14 61 16 373 16 293 0 361 -3 377 -14z m808 -2 c14 -14 16 -70 16 -483 0 -377
-3 -471 -13 -480 -21 -17 -758 -16 -768 1 -5 7 -9 223 -9 480 0 403 2 469 15
482 13 13 68 15 379 16 319 0 366 -2 380 -16z m-2396 -1096 l3 -96 -53 -7
c-30 -4 -76 -4 -103 -2 -28 3 -179 6 -337 6 l-286 1 -4 83 c-2 45 0 90 5 100
7 16 33 17 390 15 l382 -3 3 -97z m798 91 c4 -7 7 -50 6 -98 l0 -86 -29 -6
c-25 -5 -745 0 -750 5 -6 5 -5 175 1 185 10 16 762 16 772 0z m802 -1 c16 -16
16 -174 0 -184 -9 -6 -686 -10 -765 -5 -9 1 -13 25 -13 85 0 46 3 91 6 100 5
14 49 16 383 16 280 0 380 -3 389 -12z m800 0 c17 -17 16 -174 0 -185 -14 -8
-756 -5 -770 3 -13 8 -10 168 4 182 17 17 749 17 766 0z m154 -251 c76 -37
150 -120 173 -194 35 -111 8 -241 -69 -325 -77 -85 -144 -111 -291 -113 -60
-1 -193 -3 -295 -5 l-185 -3 220 -7 c264 -9 293 -13 301 -47 4 -13 2 -35 -5
-49 l-11 -24 -374 0 c-361 0 -376 1 -386 19 -5 11 -10 36 -10 55 0 38 4 40 75
49 17 2 -3 5 -44 6 -71 1 -73 0 -58 -17 19 -21 21 -49 7 -86 l-10 -26 -374 0
c-361 0 -376 1 -386 19 -14 27 -13 84 2 99 9 9 6 12 -14 12 -24 0 -25 -2 -20
-50 8 -84 29 -80 -387 -80 -272 0 -370 3 -379 12 -19 19 -15 95 6 107 14 8 9
10 -23 11 -30 0 -36 -3 -27 -12 16 -16 16 -90 0 -106 -17 -17 -739 -17 -756 0
-19 19 -15 95 6 107 14 8 9 10 -22 11 -31 0 -37 -3 -28 -12 16 -16 16 -90 0
-106 -9 -9 -107 -12 -379 -12 -305 0 -369 2 -378 14 -15 18 -23 156 -9 156 5
0 30 -10 56 -22 45 -22 60 -23 347 -26 164 -2 297 -1 294 2 -2 3 -114 6 -249
7 -279 2 -338 11 -416 64 -196 135 -189 431 13 556 80 50 4 48 2078 46 l1950
-2 57 -28z m-3364 -789 c17 -17 17 -1029 0 -1046 -18 -18 -741 -17 -756 1 -17
20 -19 1022 -2 1042 11 13 63 15 379 15 272 0 370 -3 379 -12z m814 -13 l11
-25 11 23 12 22 376 3 c352 2 378 1 385 -15 4 -10 6 -250 3 -533 l-5 -515
-374 -3 c-267 -2 -378 1 -387 9 -12 9 -14 100 -14 503 0 321 -4 486 -10 476
-6 -9 -10 -199 -10 -487 0 -259 -3 -478 -6 -487 -5 -14 -48 -16 -379 -16 -294
0 -375 3 -383 13 -17 20 -18 1023 -2 1042 11 13 71 15 386 15 l374 0 12 -25z
m1597 12 c7 -10 8 -161 3 -533 l-7 -519 -375 -3 c-344 -2 -376 -1 -387 15 -18
24 -19 1023 -1 1041 18 18 751 17 767 -1z m799 1 c16 -16 17 -1009 2 -1039
-10 -18 -25 -19 -386 -19 l-374 0 -10 26 c-14 36 -13 999 0 1025 10 18 25 19
383 19 277 0 376 -3 385 -12z m-3230 -1559 c2 -417 4 -488 17 -499 19 -16 19
-54 1 -69 -9 -8 -120 -11 -387 -9 l-374 3 0 525 0 525 255 5 c140 3 307 6 370
5 l115 0 3 -486z m802 481 c11 -7 15 -30 15 -95 0 -47 -3 -94 -6 -104 -4 -11
-29 -23 -66 -34 -66 -18 -167 -86 -202 -135 -143 -202 -81 -477 133 -582 55
-27 73 -31 152 -31 146 -1 207 17 284 87 179 162 169 443 -21 594 -48 37 -142
80 -177 80 -34 0 -42 21 -42 116 0 51 4 95 9 98 7 5 625 10 739 6 10 0 12 -25
10 -106 l-3 -105 -65 -22 c-72 -24 -157 -81 -195 -131 -13 -18 -37 -59 -52
-91 -24 -52 -28 -73 -28 -150 0 -80 3 -97 32 -157 38 -81 96 -145 163 -182 56
-30 149 -48 190 -35 21 6 22 8 5 9 -20 1 -26 3 -92 15 -87 16 -197 109 -242
204 -22 48 -26 69 -25 146 0 69 5 101 22 137 65 146 192 224 350 216 143 -7
245 -75 309 -207 24 -49 28 -68 28 -146 0 -77 -4 -98 -27 -147 -14 -31 -45
-76 -67 -101 -44 -48 -152 -107 -195 -107 -17 0 -25 -4 -20 -11 10 -17 92 -1
147 29 54 29 129 106 157 161 49 98 50 234 1 336 -52 110 -146 189 -256 217
-27 6 -56 16 -62 21 -15 11 -18 192 -4 201 4 3 169 6 366 6 288 1 359 -1 366
-12 14 -21 11 -182 -3 -199 -7 -9 -34 -23 -59 -33 -25 -9 -72 -38 -105 -64
-46 -37 -68 -64 -99 -125 -37 -74 -39 -83 -40 -170 0 -83 3 -99 32 -159 53
-113 148 -195 246 -213 30 -6 37 -11 37 -31 0 -13 -8 -32 -18 -42 -18 -18 -41
-19 -383 -18 l-364 1 -16 35 -17 35 -7 -28 c-4 -15 -15 -32 -24 -36 -9 -5
-177 -9 -374 -8 -384 1 -378 0 -389 52 -4 17 -6 16 -17 -10 -7 -16 -17 -33
-24 -37 -17 -10 -730 3 -744 14 -15 12 -17 64 -4 72 5 3 8 219 7 481 -1 262 1
480 4 485 4 6 152 11 356 13 192 1 351 3 354 4 3 2 12 -2 20 -7z m2438 -521
c2 -416 0 -519 -11 -527 -18 -15 -733 -22 -753 -8 -7 6 -16 25 -20 42 l-6 31
100 5 c86 4 106 9 147 33 77 45 123 93 160 169 58 118 57 231 -2 350 -50 99
-179 193 -281 204 -26 2 -53 9 -59 15 -16 11 -18 188 -4 203 6 5 148 7 368 4
l358 -5 3 -516z m-2272 255 c93 -32 162 -93 207 -183 29 -59 32 -74 32 -156 0
-82 -3 -97 -33 -157 -72 -147 -225 -226 -379 -198 -167 30 -286 160 -300 326
-13 159 90 314 245 370 52 18 169 17 228 -2z m1662 0 c230 -74 315 -371 161
-565 -60 -76 -189 -139 -284 -139 -86 0 -198 53 -260 122 -126 139 -124 334 5
492 72 87 252 131 378 90z"/>
<path d="M1443 2563 c9 -2 25 -2 35 0 9 3 1 5 -18 5 -19 0 -27 -2 -17 -5z"/>
<path d="M2193 2563 c9 -2 23 -2 30 0 6 3 -1 5 -18 5 -16 0 -22 -2 -12 -5z"/>
</g>
</svg>
