<?xml version="1.0" standalone="no"?>
<!DOCTYPE svg PUBLIC "-//W3C//DTD SVG 20010904//EN"
 "http://www.w3.org/TR/2001/REC-SVG-20010904/DTD/svg10.dtd">
<svg version="1.0" xmlns="http://www.w3.org/2000/svg"
 width="548.000000pt" height="455.000000pt" viewBox="0 0 548.000000 455.000000"
 preserveAspectRatio="xMidYMid meet">

<g transform="translate(0.000000,455.000000) scale(0.100000,-0.100000)"
fill="#000000" stroke="none">
<path d="M1163 4224 c15 -16 27 -34 27 -39 0 -5 -12 -22 -27 -38 -16 -17 -21
-26 -13 -22 8 5 21 17 28 27 18 25 31 23 66 -9 l31 -28 -27 31 c-16 16 -28 34
-28 39 0 5 12 23 28 39 l27 31 -31 -27 c-16 -16 -34 -28 -39 -28 -5 0 -23 12
-39 28 l-31 27 28 -31z"/>
<path d="M3012 4233 c-52 -44 -24 -123 42 -123 41 0 66 26 66 68 0 61 -63 93
-108 55z m76 -9 c44 -30 20 -104 -34 -104 -24 0 -64 31 -64 51 0 21 22 50 43
59 30 12 30 12 55 -6z"/>
<path d="M4235 4225 c-47 -46 -17 -115 50 -115 60 0 88 77 43 120 -29 27 -64
25 -93 -5z m93 -13 c29 -37 0 -92 -49 -92 -29 0 -59 31 -59 61 0 10 12 27 27
38 28 23 59 20 81 -7z"/>
<path d="M2408 4002 l-1218 -2 0 -1800 0 -1800 1555 0 1555 0 0 1800 c0 1433
-3 1800 -12 1800 -7 0 -159 1 -338 2 -179 2 -873 2 -1542 0z m-613 -512 l0
-405 -270 0 c-210 0 -270 3 -269 13 1 6 2 190 3 407 l1 395 268 -2 267 -3 0
-405z m623 -3 l2 -407 -277 2 -278 3 -3 395 c-1 217 0 401 3 408 3 10 64 12
277 10 l273 -3 3 -408z m612 3 l0 -410 -272 2 -273 3 -3 395 c-1 217 0 401 3
407 3 10 67 13 275 13 l270 0 0 -410z m618 354 l3 -51 -43 -11 c-227 -58 -297
-356 -121 -512 25 -22 69 -47 101 -58 l57 -19 0 -54 0 -54 -272 -3 -273 -2 0
410 0 410 273 -2 272 -3 3 -51z m580 -356 l2 -408 -260 0 -260 0 0 55 c0 36 4
57 13 59 82 24 117 44 168 96 70 70 94 133 86 225 -9 122 -91 225 -207 261
l-60 19 0 46 c0 25 3 49 7 53 4 3 119 5 257 4 l251 -3 3 -407z m-433 248 c102
-47 161 -146 153 -258 -8 -117 -76 -204 -184 -238 -179 -55 -347 67 -347 252
0 123 73 222 193 261 43 14 137 6 185 -17z m-1997 -1128 l2 -408 -270 0 -270
0 0 410 0 410 268 -2 267 -3 3 -407z m620 335 c2 -44 -1 -73 -7 -73 -34 0
-123 -46 -160 -82 -62 -62 -84 -109 -89 -199 -4 -66 -1 -84 20 -130 14 -30 37
-68 52 -86 28 -33 136 -93 168 -93 14 0 18 -8 18 -40 l0 -40 -280 0 -280 0 0
403 c0 222 3 407 7 410 4 4 128 6 277 5 l271 -3 3 -72z m612 -323 c0 -220 1
-403 3 -407 1 -5 -123 -9 -276 -11 l-278 -2 3 36 c3 33 6 37 55 53 106 36 178
108 204 206 16 56 6 162 -19 211 -42 83 -97 123 -229 169 -14 5 -19 126 -6
138 3 4 127 7 275 7 l268 0 0 -400z m618 -12 l2 -408 -275 0 -275 0 0 410 0
410 273 -2 272 -3 3 -407z m582 2 l0 -410 -260 0 -260 0 0 403 c0 222 3 407 7
410 3 4 120 7 260 7 l253 0 0 -410z m-1650 205 c47 -24 108 -94 124 -143 46
-133 -1 -266 -117 -332 -45 -26 -62 -30 -127 -30 -89 0 -142 21 -196 77 -53
54 -75 111 -75 189 0 77 23 133 77 187 81 81 215 103 314 52z m-780 -745 c0
-57 -1 -60 -27 -66 -216 -46 -311 -286 -186 -467 35 -51 96 -91 167 -112 l57
-17 -3 -41 -3 -42 -272 -3 -271 -2 -7 39 c-4 22 -4 201 -1 398 4 197 6 363 6
368 0 6 95 9 270 7 l270 -3 0 -59z m620 -340 l0 -400 -22 -5 c-13 -3 -135 -5
-273 -3 l-250 3 -3 48 c-3 40 0 47 15 47 36 0 123 52 162 96 22 25 47 66 55
91 23 66 20 167 -5 223 -36 80 -123 153 -204 170 -29 6 -30 8 -33 68 l-3 62
281 0 280 0 0 -400z m608 -2 l-3 -403 -270 0 -270 0 -3 403 -2 402 275 0 275
0 -2 -402z m620 0 l-3 -403 -270 0 -270 0 -3 403 -2 402 275 0 275 0 -2 -402z
m580 0 l-3 -403 -255 0 -255 0 -3 403 -2 402 260 0 260 0 -2 -402z m-2282 224
c96 -49 143 -128 144 -238 0 -120 -66 -217 -177 -257 -63 -23 -110 -22 -179 4
-227 85 -233 396 -10 501 54 25 163 20 222 -10z m-141 -1087 l0 -390 -275 0
-275 0 -3 379 c-2 209 -1 385 2 393 5 11 57 13 278 11 l273 -3 0 -390z m615 0
l0 -395 -275 0 -275 0 0 395 0 395 275 0 275 0 0 -395z m610 0 l0 -395 -275 0
-275 0 0 388 c0 214 3 392 7 395 3 4 127 7 275 7 l268 0 0 -395z m618 -2 l2
-393 -275 0 -275 0 0 395 0 395 273 -2 272 -3 3 -392z m582 2 l0 -395 -260 0
-260 0 0 395 0 395 260 0 260 0 0 -395z"/>
</g>
</svg>
