<?xml version="1.0" standalone="no"?>
<!DOCTYPE svg PUBLIC "-//W3C//DTD SVG 20010904//EN"
 "http://www.w3.org/TR/2001/REC-SVG-20010904/DTD/svg10.dtd">
<svg version="1.0" xmlns="http://www.w3.org/2000/svg"
 width="526.000000pt" height="474.000000pt" viewBox="0 0 526.000000 474.000000"
 preserveAspectRatio="xMidYMid meet">

<g transform="translate(0.000000,474.000000) scale(0.100000,-0.100000)"
fill="#000000" stroke="none">
<path d="M886 4650 c4 -8 18 -23 31 -33 30 -24 29 -35 -9 -74 -18 -18 -27 -33
-20 -33 6 0 19 11 27 24 26 39 45 40 84 4 l36 -33 -34 38 -35 37 34 35 c18 19
31 37 29 40 -3 3 -18 -9 -34 -25 -16 -17 -33 -30 -39 -30 -5 0 -26 15 -45 33
-18 17 -30 25 -25 17z"/>
<path d="M1568 4645 c6 -11 20 -27 31 -35 28 -19 27 -28 -11 -67 -18 -18 -28
-33 -22 -33 5 0 20 14 33 30 29 38 43 38 74 0 14 -16 29 -30 33 -30 5 0 -7 16
-26 35 l-33 34 28 38 28 38 -29 -27 c-17 -16 -34 -28 -39 -28 -5 0 -24 15 -43
33 -22 20 -31 25 -24 12z"/>
<path d="M940 2440 l0 -1950 1680 0 1680 0 0 1013 0 1013 48 12 c26 7 70 29
99 48 91 62 133 148 133 268 -1 142 -86 255 -228 301 l-52 17 0 614 0 614
-1680 0 -1680 0 0 -1950z m658 1388 l-3 -453 -297 -3 -298 -2 0 455 0 455 300
0 300 0 -2 -452z m657 -3 l0 -450 -295 0 -295 0 -3 453 -2 452 297 -2 298 -3
0 -450z m663 3 l-3 -453 -294 -3 c-229 -2 -296 1 -303 10 -9 15 -11 858 -2
882 5 14 42 16 305 16 l299 0 -2 -452z m653 45 c1 -225 2 -421 4 -438 8 -69
25 -66 -298 -63 l-292 3 -3 453 -2 452 295 0 295 0 1 -407z m667 -28 c1 -236
0 -440 -3 -453 l-5 -22 -298 2 -297 3 -3 440 c-1 242 0 446 3 453 3 10 69 12
302 10 l298 -3 3 -430z m-2643 -965 l0 -455 -295 3 -295 3 -3 455 -2 454 297
-2 298 -3 0 -455z m660 0 l0 -455 -295 0 -295 0 -3 458 -2 457 297 -2 298 -3
0 -455z m663 368 l3 -87 -28 -7 c-53 -13 -110 -42 -148 -75 -143 -126 -147
-340 -9 -475 41 -39 131 -84 169 -84 23 0 21 -87 -2 -92 -9 -2 -145 -1 -302 2
l-286 5 -1 445 c0 245 1 448 3 453 3 4 138 6 301 5 l297 -3 3 -87z m655 70 c3
-13 4 -218 3 -456 l-1 -433 -295 -1 -295 0 -3 46 c-3 40 -1 46 17 46 40 0 128
41 167 77 70 66 97 124 102 220 3 63 0 95 -12 127 -38 99 -113 168 -218 202
l-58 18 0 88 0 88 294 0 294 0 5 -22z m662 -67 l0 -84 -52 -18 c-56 -19 -124
-62 -160 -100 -43 -47 -76 -137 -75 -208 1 -152 86 -267 231 -311 55 -17 56
-18 59 -58 3 -36 0 -42 -20 -47 -17 -4 -525 0 -580 4 -10 1 -11 895 -1 904 4
4 140 6 302 5 l296 -3 0 -84z m-1164 -148 c65 -29 111 -74 143 -139 25 -51 28
-65 24 -138 -4 -95 -22 -137 -80 -195 -59 -58 -100 -75 -195 -79 -70 -3 -90
-1 -128 18 -57 28 -104 73 -141 136 -26 43 -29 58 -28 129 0 66 5 89 26 131
37 71 106 128 188 155 40 13 142 3 191 -18z m1288 10 c136 -43 227 -208 190
-340 -22 -82 -53 -128 -112 -170 -121 -88 -288 -71 -388 38 -80 88 -98 217
-44 323 68 134 213 195 354 149z m-2761 -1179 l-3 -456 -295 1 -295 0 -3 456
-2 455 300 0 300 0 -2 -456z m660 -1 l-3 -458 -275 -3 c-151 -1 -285 0 -297 3
l-23 5 0 455 0 455 300 0 300 0 -2 -457z m657 -3 l0 -455 -285 0 c-157 0 -293
3 -302 7 -16 7 -17 41 -18 441 0 239 2 442 6 451 6 15 35 16 303 14 l296 -3 0
-455z m658 385 c-1 -38 -2 -78 -3 -87 0 -12 -15 -20 -52 -28 -203 -43 -309
-266 -218 -455 41 -84 137 -158 222 -170 51 -8 56 -16 50 -72 l-4 -32 -292 2
-291 2 -3 458 -2 457 297 -2 298 -3 -2 -70z m665 -365 c1 -239 0 -445 -3 -457
-5 -21 -6 -21 -288 -23 -156 0 -291 2 -300 6 -12 4 -17 18 -17 46 0 36 3 40
38 54 83 34 107 48 148 90 54 56 87 138 87 219 1 156 -94 273 -260 321 -14 4
-19 165 -6 177 4 4 140 6 302 5 l296 -3 3 -435z m-517 198 c101 -60 153 -149
154 -263 1 -245 -279 -373 -480 -219 -21 15 -48 53 -67 92 -75 152 -20 314
135 392 57 29 68 31 138 28 59 -4 86 -10 120 -30z m-2121 -1163 l0 -455 -300
0 -300 0 0 455 0 455 300 0 300 0 0 -455z m660 0 l0 -455 -300 0 -300 0 0 455
0 455 300 0 300 0 0 -455z m660 0 l0 -455 -302 2 -303 3 -2 445 c0 245 1 448
4 453 2 4 139 7 304 7 l299 0 0 -455z m650 438 c0 -10 1 -215 2 -456 l3 -437
-297 0 -298 0 0 455 0 455 295 0 c274 0 295 -1 295 -17z m668 -440 l2 -453
-305 0 -305 0 0 448 c0 247 3 452 7 455 4 4 140 6 302 5 l296 -3 3 -452z"/>
<path d="M4455 340 c-3 -5 -14 -10 -25 -10 -10 0 -20 -7 -24 -15 -4 -12 0 -14
22 -9 34 8 58 29 44 38 -6 3 -13 2 -17 -4z"/>
<path d="M2270 240 l0 -90 34 0 c18 0 47 5 63 10 53 19 70 95 32 144 -18 22
-28 26 -75 26 l-54 0 0 -90z m115 60 c18 -20 22 -62 10 -101 -11 -33 -97 -55
-107 -26 -3 6 -4 35 -2 62 1 28 3 58 3 68 1 25 72 24 96 -3z"/>
<path d="M2914 258 c-15 -40 -31 -81 -36 -90 -5 -10 -5 -18 -1 -18 5 0 14 13
20 30 10 27 15 30 56 30 43 0 46 -2 52 -31 4 -17 9 -28 12 -25 10 10 -50 176
-63 176 -7 0 -25 -33 -40 -72z m55 21 c17 -50 14 -59 -19 -59 -19 0 -30 5 -30
14 0 22 21 76 30 76 4 0 13 -14 19 -31z"/>
<path d="M3540 240 l0 -90 43 1 42 2 -35 6 -35 6 -1 60 c-2 88 1 95 44 95 47
0 60 -9 72 -49 10 -37 -1 -79 -27 -98 -9 -7 -12 -13 -6 -13 19 0 45 39 50 77
4 29 0 44 -17 66 -19 23 -28 27 -76 27 l-54 0 0 -90z"/>
<path d="M4221 245 c0 -47 5 -87 10 -90 5 -4 9 14 9 39 l0 45 48 4 47 3 -47 2
c-48 2 -48 2 -48 36 0 35 0 35 53 39 l52 3 -62 2 -63 2 1 -85z"/>
<path d="M4460 261 c0 -5 -13 -12 -30 -16 -29 -6 -37 -15 -24 -27 6 -7 61 19
69 32 3 5 1 11 -5 15 -5 3 -10 2 -10 -4z"/>
</g>
</svg>
