<?xml version="1.0" standalone="no"?>
<!DOCTYPE svg PUBLIC "-//W3C//DTD SVG 20010904//EN"
 "http://www.w3.org/TR/2001/REC-SVG-20010904/DTD/svg10.dtd">
<svg version="1.0" xmlns="http://www.w3.org/2000/svg"
 width="473.000000pt" height="512.000000pt" viewBox="0 0 473.000000 512.000000"
 preserveAspectRatio="xMidYMid meet">

<g transform="translate(0.000000,512.000000) scale(0.100000,-0.100000)"
fill="#000000" stroke="none">
<path d="M652 4757 c-45 -48 -10 -137 53 -137 33 0 85 50 80 76 -2 10 -4 24
-4 31 -1 7 -11 21 -23 33 -30 27 -79 26 -106 -3z m106 -14 c18 -25 15 -68 -8
-88 -41 -37 -110 -9 -110 46 0 58 83 87 118 42z"/>
<path d="M3425 4755 c-27 -26 -31 -51 -14 -88 12 -26 47 -47 80 -47 31 0 69
44 69 80 0 19 -9 40 -25 55 -15 16 -36 25 -55 25 -19 0 -40 -9 -55 -25z m100
-10 c29 -28 31 -51 9 -83 -15 -22 -66 -30 -90 -14 -40 26 -35 94 8 112 36 14
47 12 73 -15z"/>
<path d="M4102 4757 c-68 -73 28 -181 102 -114 55 50 24 137 -49 137 -20 0
-39 -8 -53 -23z m81 2 c29 -16 37 -28 37 -60 0 -36 -31 -61 -71 -57 -61 6 -80
90 -27 116 30 14 35 14 61 1z"/>
<path d="M677 4513 c-9 -8 -9 -3965 -1 -4016 l7 -37 1743 0 1743 0 3 2018 c2
1109 1 2023 -1 2030 -2 9 -360 12 -1745 12 -959 0 -1746 -3 -1749 -7z m693
-588 l0 -465 -320 0 -320 0 0 465 0 465 320 0 320 0 0 -465z m700 0 l0 -465
-320 0 -320 0 0 465 0 465 320 0 320 0 0 -465z m678 379 l-3 -87 -42 -12
c-148 -44 -243 -169 -243 -320 0 -154 96 -280 248 -325 41 -13 42 -14 42 -57
l0 -43 -315 0 -315 0 0 465 0 465 315 0 316 0 -3 -86z m702 -379 l0 -465 -322
2 -323 3 0 40 c0 39 1 40 43 47 59 10 158 65 193 107 58 70 83 136 82 220 0
89 -17 143 -64 205 -46 60 -116 105 -191 125 l-63 17 -2 82 -1 82 324 0 324 0
0 -465z m665 0 l0 -465 -307 0 -308 0 0 465 0 465 308 0 307 0 0 -465z m-1193
233 c57 -24 122 -92 150 -155 30 -68 28 -175 -4 -245 -89 -192 -342 -238 -488
-89 -60 61 -82 111 -88 196 -5 82 19 157 69 218 31 38 107 83 164 98 45 12
143 1 197 -23z m-1552 -832 l0 -94 -50 -17 c-109 -36 -195 -136 -220 -256 -34
-160 75 -336 235 -380 34 -10 35 -11 35 -60 l0 -49 -317 2 -318 3 -3 460 c-1
253 0 466 3 473 3 9 77 12 320 12 l315 0 0 -94z m700 0 l0 -94 -37 -7 c-116
-21 -227 -129 -258 -250 l-7 -30 -17 45 c-48 133 -131 209 -261 235 l-55 12
-3 78 c-2 43 -1 84 2 92 4 10 67 13 321 13 l315 0 0 -94z m680 -381 l0 -475
-312 2 -313 3 -3 42 c-3 39 -1 43 25 48 70 16 125 41 168 78 125 107 157 265
82 410 -51 98 -115 142 -264 183 -14 4 -19 165 -6 177 3 4 145 7 315 7 l308 0
0 -475z m700 0 l0 -475 -322 2 -323 3 -3 460 c-1 253 0 466 3 473 3 9 78 12
325 12 l320 0 0 -475z m661 60 c0 -225 1 -438 0 -473 l-1 -62 -302 2 -303 3
-3 460 c-1 253 0 466 3 473 3 10 70 12 305 10 l300 -3 1 -410z m-2542 164 c24
-13 62 -45 85 -70 127 -142 91 -373 -72 -462 -181 -99 -395 -10 -446 185 -37
145 42 304 179 358 70 28 192 23 254 -11z m644 10 c30 -12 74 -39 96 -60 144
-139 125 -359 -40 -471 -123 -83 -276 -68 -381 38 -135 135 -109 367 52 469
78 49 183 58 273 24z m-429 -383 c30 -103 125 -193 234 -220 47 -12 47 -12 50
-59 l3 -47 -320 0 -321 0 0 44 0 44 43 7 c132 21 240 115 278 243 7 23 13 42
15 42 1 0 10 -24 18 -54z m-416 -837 l-3 -472 -315 1 -315 1 -3 471 -2 470
320 0 320 0 -2 -471z m700 -1 l-3 -472 -25 1 c-14 0 -157 1 -317 2 l-293 1 0
470 0 470 320 0 320 0 -2 -472z m680 2 l-3 -471 -310 0 -310 0 -3 471 -2 470
315 0 315 0 -2 -470z m702 0 l0 -470 -282 -1 c-156 0 -292 -2 -303 -4 -11 -2
-30 -2 -42 2 l-23 5 0 469 0 469 325 0 325 0 0 -470z m663 9 c-1 -254 -4 -466
-6 -473 -3 -8 -88 -10 -306 -8 l-301 3 0 469 0 470 308 0 307 0 -2 -461z
m-2743 -994 l0 -475 -317 2 -318 3 -3 460 c-1 253 0 466 3 473 3 9 77 12 320
12 l315 0 0 -475z m700 0 l0 -475 -320 0 -320 0 0 468 c0 258 3 472 7 475 3 4
147 7 320 7 l313 0 0 -475z m680 0 l0 -475 -312 2 -313 3 -3 460 c-1 253 0
466 3 473 3 9 76 12 315 12 l310 0 0 -475z m700 0 l0 -475 -322 2 -323 3 -3
460 c-1 252 0 465 2 472 4 10 73 13 326 13 l320 0 0 -475z m665 0 l0 -470
-305 0 -305 0 -3 460 c-1 253 0 466 3 473 3 10 70 12 307 10 l303 -3 0 -470z"/>
<path d="M2734 301 c-31 -13 -54 -56 -54 -99 0 -72 69 -115 132 -81 16 9 23 8
29 -2 6 -9 9 5 9 39 l0 52 -37 -1 c-36 -1 -36 -2 -9 -8 38 -8 42 -21 16 -54
-46 -58 -120 -22 -120 58 0 56 25 85 74 85 25 0 39 -7 50 -22 9 -12 18 -19 21
-16 3 3 -2 15 -12 27 -20 24 -68 35 -99 22z"/>
<path d="M640 205 l0 -95 70 0 c40 0 70 4 70 10 0 6 -27 10 -60 10 l-60 0 0
35 c0 19 3 35 8 36 4 0 26 1 49 2 64 3 64 17 0 17 l-57 0 0 35 0 34 63 4 62 3
-72 2 -73 2 0 -95z"/>
<path d="M1360 205 l0 -95 43 0 c23 0 53 6 67 13 29 14 38 58 17 76 -12 9 -13
18 -4 41 16 43 -3 60 -69 60 l-54 0 0 -95z m105 50 c0 -29 -2 -30 -47 -33
l-48 -3 0 36 0 36 48 -3 c45 -3 47 -4 47 -33z m12 -71 c18 -25 -1 -52 -42 -60
-50 -9 -65 0 -65 39 0 19 3 37 8 41 12 13 86 -2 99 -20z"/>
<path d="M2030 205 l0 -95 70 0 c43 0 70 4 70 11 0 6 -19 10 -47 9 -73 -3 -73
-3 -73 35 l0 35 55 0 c30 0 55 5 55 10 0 6 -25 10 -55 10 l-55 0 0 35 0 34 63
4 62 3 -72 2 -73 2 0 -95z"/>
<path d="M2948 283 c-16 -8 -28 -21 -28 -29 0 -18 8 -17 44 5 56 32 41 55 -16
24z"/>
<path d="M3393 208 l2 -93 59 0 c45 1 61 5 72 20 16 21 9 55 -13 68 -12 8 -12
12 3 28 14 16 15 24 6 44 -10 23 -17 25 -71 25 l-60 0 2 -92z m107 67 c6 -8 9
-23 5 -35 -5 -16 -15 -20 -51 -20 -44 0 -44 0 -44 35 0 34 1 35 39 35 21 0 44
-6 51 -15z m-6 -75 c18 -7 26 -17 26 -34 0 -21 -7 -27 -39 -37 -53 -16 -71 -7
-71 34 0 19 3 37 7 40 9 10 48 8 77 -3z"/>
<path d="M4090 205 l0 -95 70 0 c40 0 70 4 70 10 0 6 -27 10 -61 10 l-60 0 3
37 3 38 47 0 c25 0 50 3 54 8 4 4 -18 7 -49 7 l-57 0 0 35 0 34 63 4 62 3 -72
2 -73 2 0 -95z"/>
<path d="M2965 200 c-3 -5 -15 -10 -26 -10 -11 0 -19 -7 -19 -16 0 -11 5 -14
18 -9 9 4 22 8 27 9 17 3 35 17 35 27 0 12 -27 12 -35 -1z"/>
</g>
</svg>
