<?xml version="1.0" standalone="no"?>
<!DOCTYPE svg PUBLIC "-//W3C//DTD SVG 20010904//EN"
 "http://www.w3.org/TR/2001/REC-SVG-20010904/DTD/svg10.dtd">
<svg version="1.0" xmlns="http://www.w3.org/2000/svg"
 width="450.000000pt" height="472.000000pt" viewBox="0 0 450.000000 472.000000"
 preserveAspectRatio="xMidYMid meet">

<g transform="translate(0.000000,472.000000) scale(0.100000,-0.100000)"
fill="#000000" stroke="none">
<path d="M508 4329 l-3 -161 -67 -17 c-117 -30 -211 -119 -242 -231 -21 -74
-20 -114 4 -193 15 -50 33 -80 72 -122 58 -64 99 -88 181 -105 l57 -11 0
-1520 0 -1519 1740 0 1740 0 0 1519 0 1518 65 16 c164 41 263 176 253 346 -9
155 -110 271 -263 305 l-50 11 -5 160 -5 160 -1737 3 -1738 2 -2 -161z m687
-64 l0 -100 -330 0 -330 0 -3 103 -3 102 333 -2 333 -3 0 -100z m693 3 l-3
-103 -330 0 -330 0 -3 103 -3 102 336 0 336 0 -3 -102z m692 -3 l0 -105 -332
2 -333 3 -3 89 c-2 49 -1 95 2 103 4 10 70 13 336 13 l330 0 0 -105z m695 0
l0 -100 -332 -3 -333 -2 0 105 0 105 333 -2 332 -3 0 -100z m693 3 l-3 -103
-330 0 -330 0 -3 103 -3 102 336 0 336 0 -3 -102z m156 -172 c67 -39 104 -79
133 -143 22 -47 25 -66 21 -136 -2 -61 -9 -93 -26 -126 -45 -85 -116 -141
-204 -160 -30 -7 -257 -11 -615 -12 -611 -1 -836 -10 -553 -22 85 -3 202 -5
260 -4 120 3 140 0 140 -19 0 -12 -54 -14 -337 -12 -239 2 -337 6 -340 14 -2
7 13 15 34 19 l38 8 -38 10 c-20 5 -50 6 -65 2 -26 -6 -26 -7 -6 -18 12 -7 19
-18 17 -24 -4 -10 -80 -13 -339 -13 -282 0 -334 2 -334 14 0 20 108 31 217 22
47 -4 144 -4 216 1 l132 8 -80 6 c-44 3 -492 7 -995 8 -1065 2 -995 -4 -1095
96 -54 53 -64 70 -80 128 -28 103 -8 200 57 283 23 29 111 89 143 97 11 3 837
4 1835 3 l1815 -1 49 -29z m-2924 -621 c0 -13 -44 -15 -335 -15 -291 0 -335 2
-335 15 0 13 44 15 335 15 291 0 335 -2 335 -15z m690 0 c0 -13 -44 -15 -335
-15 -291 0 -335 2 -335 15 0 13 44 15 335 15 291 0 335 -2 335 -15z m2080 0
c0 -13 -42 -15 -337 -13 -258 2 -337 6 -341 16 -3 9 69 12 337 12 298 0 341
-2 341 -15z m-2772 -532 l-3 -478 -40 1 c-22 1 -172 2 -332 3 l-293 1 0 475 0
475 335 0 335 0 -2 -477z m692 3 c0 -388 -2 -475 -13 -479 -8 -3 -40 -4 -73
-3 -32 2 -177 4 -321 4 l-263 2 0 475 0 475 335 0 335 0 0 -474z m690 350 l0
-123 -42 -7 c-192 -31 -319 -231 -265 -417 38 -130 131 -210 280 -243 19 -5
27 -13 27 -27 0 -21 -2 -21 -290 -18 -159 2 -310 5 -335 7 l-45 4 0 467 c0
257 3 471 7 474 3 4 154 7 335 7 l328 0 0 -124z m698 -352 c2 -443 1 -472 -15
-475 -10 -2 -160 -4 -333 -4 -308 0 -315 0 -315 20 0 12 8 21 20 23 81 13 127
35 183 87 124 115 146 284 55 422 -53 80 -169 153 -243 153 -17 0 -19 10 -22
103 -2 56 -2 112 0 125 l3 22 332 -2 332 -3 3 -471z m690 1 l-3 -476 -320 0
c-176 0 -326 0 -332 1 -10 0 -13 102 -13 475 l0 475 335 0 335 0 -2 -475z
m-1265 179 c60 -20 140 -95 168 -158 30 -68 35 -149 14 -221 -13 -48 -28 -70
-78 -120 -52 -51 -72 -64 -123 -78 -74 -21 -114 -21 -177 -2 -94 28 -181 116
-207 210 -17 61 -8 160 20 215 31 63 112 137 169 154 62 20 157 19 214 0z
m-1508 -818 l0 -119 -50 -12 c-141 -32 -235 -130 -266 -274 -32 -152 73 -323
228 -371 36 -11 72 -20 80 -20 8 0 13 -7 11 -17 -3 -17 -28 -18 -336 -21
l-332 -2 0 480 0 480 333 -2 332 -3 0 -119z m695 0 l0 -123 -45 -6 c-94 -13
-194 -89 -242 -182 -34 -65 -42 -169 -19 -246 32 -111 121 -195 239 -226 51
-13 67 -22 67 -35 0 -17 -19 -18 -332 -16 -294 3 -333 5 -336 19 -2 12 12 19
55 28 102 23 183 85 235 183 20 37 23 58 23 143 0 86 -3 106 -24 145 -50 97
-152 174 -246 187 l-45 6 0 123 0 124 335 0 335 0 0 -124z m690 -356 l0 -480
-332 2 c-294 3 -333 5 -336 19 -2 12 12 19 55 28 74 16 128 48 180 104 53 57
68 88 83 163 19 99 -11 209 -77 279 -53 57 -105 89 -172 106 l-66 17 -3 108
c-1 59 0 114 2 121 4 10 72 13 336 13 l330 0 0 -480z m695 0 l0 -475 -332 -3
-333 -2 0 480 0 480 333 -2 332 -3 0 -475z m693 3 l-3 -478 -332 -3 -333 -2 0
480 0 480 335 0 335 0 -2 -477z m-2628 170 c51 -24 119 -91 146 -143 11 -22
19 -66 22 -116 4 -72 1 -89 -20 -136 -34 -74 -76 -119 -145 -154 -50 -25 -69
-29 -138 -29 -63 0 -89 5 -122 23 -93 49 -150 121 -173 219 -32 141 56 297
200 350 52 19 175 12 230 -14z m650 17 c94 -27 184 -123 207 -220 30 -130 -19
-252 -131 -329 -158 -108 -394 -27 -451 155 -25 80 -17 186 18 247 34 58 107
122 160 141 49 17 147 20 197 6z m-795 -1180 l0 -475 -330 0 -330 0 -3 478 -2
477 332 -2 333 -3 0 -475z m690 0 l0 -475 -330 0 -330 0 -3 465 c-1 256 0 471
3 478 3 10 75 12 332 10 l328 -3 0 -475z m695 0 l0 -480 -332 2 -333 3 -3 465
c-1 256 0 471 3 478 3 9 80 12 335 12 l330 0 0 -480z m695 0 l0 -475 -332 -3
-333 -2 -1 440 c-1 242 -1 451 -1 465 0 60 -27 56 335 53 l332 -3 0 -475z
m690 0 l0 -475 -332 -3 -333 -2 0 480 0 480 333 -2 332 -3 0 -475z"/>
</g>
</svg>
