<?xml version="1.0" standalone="no"?>
<!DOCTYPE svg PUBLIC "-//W3C//DTD SVG 20010904//EN"
 "http://www.w3.org/TR/2001/REC-SVG-20010904/DTD/svg10.dtd">
<svg version="1.0" xmlns="http://www.w3.org/2000/svg"
 width="548.000000pt" height="455.000000pt" viewBox="0 0 548.000000 455.000000"
 preserveAspectRatio="xMidYMid meet">

<g transform="translate(0.000000,455.000000) scale(0.100000,-0.100000)"
fill="#000000" stroke="none">
<path d="M1170 3061 l0 -1019 -50 -11 c-131 -28 -219 -131 -228 -267 -10 -158
78 -276 236 -314 l42 -11 0 -469 0 -470 1545 0 1545 0 0 468 0 468 53 13 c70
18 95 32 146 81 63 61 86 118 86 215 0 70 -4 87 -30 134 -45 81 -127 142 -212
156 l-43 7 0 1019 0 1019 -1545 0 -1545 0 0 -1019z m618 506 l2 -397 -297 2
-298 3 -3 385 c-1 212 0 391 3 398 3 10 68 12 297 10 l293 -3 3 -398z m612 3
l0 -400 -295 0 -295 0 0 400 0 400 295 0 295 0 0 -400z m610 0 l0 -400 -295 0
-295 0 0 400 0 400 295 0 295 0 0 -400z m620 0 l0 -400 -301 0 c-270 0 -301 2
-295 16 3 9 6 189 6 400 l0 384 295 0 295 0 0 -400z m610 0 l0 -400 -295 0
-295 0 0 400 0 400 295 0 295 0 0 -400z m-2452 -530 c4 -112 -1 -130 -36 -130
-40 0 -124 -43 -165 -84 -55 -55 -79 -110 -85 -192 -4 -62 -1 -79 22 -130 44
-95 110 -152 205 -176 104 -26 56 -33 -241 -33 l-293 0 -2 405 c-1 223 0 411
3 418 3 10 67 12 296 10 l293 -3 3 -85z m612 -330 l0 -420 -295 0 c-256 0
-295 2 -295 15 0 8 8 15 19 15 30 0 103 29 143 56 20 14 54 51 75 81 38 55 38
56 38 157 0 117 -11 146 -83 215 -53 50 -112 80 -159 81 l-33 0 0 110 0 110
295 0 295 0 0 -420z m610 0 l0 -420 -295 0 -295 0 0 420 0 420 295 0 295 0 0
-420z m620 0 l0 -420 -295 0 -295 0 0 420 0 420 295 0 295 0 0 -420z m610 0
l0 -420 -295 0 -295 0 0 420 0 420 295 0 295 0 0 -420z m-2363 165 c189 -56
250 -309 107 -450 -55 -54 -106 -75 -184 -75 -250 0 -364 296 -178 466 73 67
160 87 255 59z m-92 -1045 l0 -415 -294 0 c-305 0 -360 8 -245 35 109 26 201
114 225 214 17 69 5 168 -25 221 -44 74 -128 135 -208 149 -20 4 -39 14 -42
22 -8 22 -8 179 1 187 4 4 137 6 297 5 l291 -3 0 -415z m613 3 l-3 -418 -292
-3 -293 -2 0 420 0 420 295 0 295 0 -2 -417z m612 -3 l0 -420 -292 2 -293 3
-3 418 -2 417 295 0 295 0 0 -420z m618 3 l-3 -418 -292 -3 -293 -2 0 420 0
420 295 0 295 0 -2 -417z m612 313 l0 -104 -50 -11 c-137 -29 -235 -151 -233
-291 1 -148 99 -261 256 -294 15 -4 27 -13 27 -21 0 -13 -38 -15 -292 -13
l-293 3 -3 418 -2 417 295 0 295 0 0 -104z m-2973 -151 c67 -20 134 -80 163
-147 31 -73 26 -184 -12 -244 -50 -78 -149 -134 -238 -134 -97 0 -201 71 -241
163 -30 71 -24 184 13 242 74 115 187 158 315 120z m3105 -15 c56 -29 84 -55
116 -110 24 -39 27 -56 27 -130 0 -74 -3 -91 -27 -130 -94 -161 -309 -185
-432 -49 -46 51 -76 120 -76 174 0 115 85 229 200 266 43 14 146 3 192 -21z
m-2587 -1020 l0 -415 -291 -3 -292 -2 -5 22 c-8 32 -9 797 -2 809 4 6 120 8
298 7 l292 -3 0 -415z m613 -2 l2 -418 -295 0 -295 0 0 413 c0 228 3 417 7
420 4 4 135 6 292 5 l286 -3 3 -417z m612 410 c0 -5 0 -192 0 -418 l0 -410
-295 0 -295 0 0 413 c0 228 3 417 7 420 9 10 583 4 583 -5z m618 -410 l2 -418
-295 0 -295 0 -2 408 c-2 224 -1 413 1 420 2 10 66 12 295 10 l291 -3 3 -417z
m610 0 l2 -418 -295 0 -295 0 0 413 c0 228 3 417 7 420 4 4 135 6 292 5 l286
-3 3 -417z"/>
</g>
</svg>
